<svg xmlns="http://www.w3.org/2000/svg" viewBox="0 0 512 512" role="img" aria-label="명선 앱 아이콘">
  <rect width="512" height="512" rx="112" fill="#f7efe4"/>
  <circle cx="256" cy="230" r="118" fill="#377e78"/>
  <path fill="#fffaf4" d="M189 220c0-34 28-62 62-62h12c34 0 62 28 62 62s-28 62-62 62h-12c-5 0-10-1-15-2l-47 31 12-52c-8-11-12-25-12-39Z"/>
  <circle cx="229" cy="220" r="15" fill="#ca5c43"/>
  <circle cx="257" cy="220" r="15" fill="#ca5c43"/>
  <circle cx="285" cy="220" r="15" fill="#ca5c43"/>
  <path fill="#2b3634" d="M149 373c21-43 61-66 107-66s86 23 107 66c8 16-4 35-22 35H171c-18 0-30-19-22-35Z"/>
</svg>
